<svg id="Layer_1" enable-background="new 0 0 497 497" height="512" viewBox="0 0 497 497" width="512" xmlns="http://www.w3.org/2000/svg">
    <path d="m248.5 0c-66.377 0-128.781 25.849-175.716 72.784-46.935 46.936-72.784 109.34-72.784 175.716s25.849 128.78 72.784 175.716c46.935 46.935 109.339 72.784 175.716 72.784 17.487 0 34.693-1.812 51.418-5.313v-486.374c-16.725-3.501-33.931-5.313-51.418-5.313z" fill="#d4d4d5"/>
<path d="m497 248.5c0-66.376-25.849-128.78-72.784-175.716-34.57-34.57-77.538-57.683-124.298-67.471-46.761 9.788-89.728 32.901-124.298 67.471-46.935 46.936-72.784 109.34-72.784 175.716s25.849 128.78 72.784 175.716c34.57 34.57 77.538 57.683 124.298 67.471 46.761-9.788 89.728-32.901 124.298-67.471 46.935-46.936 72.784-109.34 72.784-175.716z" fill="#efedee"/>
<g fill="#d4d4d5"><circle cx="396.336" cy="296.5" r="45"/>
<circle cx="176.335" cy="116.5" r="30"/>
<circle cx="304.5" cy="413.5" r="15"/></g>
<circle cx="60" cy="248.5" fill="#b9bbbc" r="15"/>
<circle cx="366.336" cy="101.5" fill="#d4d4d5" r="15"/>
<path d="m175.962 424.553-61.848-101.686c-14.638 10.941-24.114 28.408-24.114 48.089 0 33.137 26.863 60 60 60 9.437 0 18.019-2.521 25.962-6.403-.227-.226.227.227 0 0z" fill="#b9bbbc"/>
<path d="m210.001 370.956c0-33.137-26.863-60-60-60-13.456 0-25.878 4.43-35.886 11.911 11.814 37.841 33.016 72.854 61.848 101.686.227.227-.228-.226 0 0 19.95-9.748 34.038-29.896 34.038-53.597z" fill="#d4d4d5"/>
</svg>
